<?xml version="1.0" standalone="no"?>
<!DOCTYPE svg PUBLIC "-//W3C//DTD SVG 20010904//EN"
 "http://www.w3.org/TR/2001/REC-SVG-20010904/DTD/svg10.dtd">
<svg version="1.0" xmlns="http://www.w3.org/2000/svg"
 width="1200.000000pt" height="1200.000000pt" viewBox="0 0 1200.000000 1200.000000"
 preserveAspectRatio="xMidYMid meet">
<metadata>
Created by potrace 1.14, written by Peter Selinger 2001-2017
</metadata>
<g transform="translate(0.000000,1200.000000) scale(0.100000,-0.100000)"
fill="#000000" stroke="none">
<path d="M5700 10719 c-495 -32 -986 -142 -1435 -321 -310 -124 -704 -333
-925 -491 -104 -74 -276 -201 -280 -207 -3 -3 -14 -13 -26 -21 -122 -84 -475
-426 -634 -614 -471 -557 -801 -1200 -981 -1905 -34 -134 -48 -198 -74 -345
-14 -79 -36 -231 -40 -283 -3 -31 -7 -66 -10 -77 -7 -36 -19 -307 -19 -455 0
-209 14 -464 29 -507 4 -13 -18 -35 -31 -31 -8 2 -71 -7 -126 -17 -11 -3 -39
-7 -62 -9 -22 -3 -51 -8 -63 -11 -22 -5 -37 -8 -93 -20 -51 -11 -67 -15 -145
-35 -44 -12 -87 -23 -95 -25 -8 -2 -35 -11 -60 -20 -25 -9 -49 -17 -55 -19
-132 -41 -303 -147 -367 -228 -51 -63 -59 -86 -63 -177 -2 -57 2 -72 38 -145
39 -78 110 -160 217 -251 43 -36 222 -156 270 -180 19 -10 37 -21 40 -24 11
-13 392 -196 450 -216 3 -1 14 -5 25 -10 11 -4 54 -21 95 -37 41 -16 84 -33
95 -38 11 -5 47 -18 80 -30 33 -11 67 -23 75 -27 8 -3 20 -7 25 -9 6 -2 61
-20 123 -42 l113 -38 28 -55 c35 -70 130 -232 198 -337 29 -45 53 -87 53 -92
0 -6 4 -10 8 -10 4 0 16 -15 27 -33 10 -17 23 -36 27 -42 5 -5 30 -39 56 -75
25 -36 49 -67 52 -70 3 -3 25 -32 50 -65 25 -33 50 -65 55 -71 6 -6 30 -35 55
-64 25 -29 63 -74 85 -99 63 -71 273 -279 360 -356 43 -38 86 -77 94 -85 9 -8
37 -31 61 -50 25 -19 47 -37 50 -40 13 -13 102 -81 165 -125 39 -28 75 -53 80
-58 20 -17 236 -157 242 -157 3 0 25 -13 50 -30 24 -16 46 -30 48 -30 2 0 28
-14 57 -32 76 -45 406 -208 421 -208 3 0 31 -12 63 -27 33 -15 64 -28 70 -29
6 -1 27 -9 45 -17 29 -13 62 -26 79 -32 3 -1 12 -4 20 -8 33 -12 266 -89 280
-92 8 -2 35 -8 60 -15 25 -7 45 -11 45 -10 0 1 14 -4 30 -10 17 -7 39 -14 50
-16 21 -4 53 -11 83 -18 67 -16 120 -28 137 -31 77 -14 207 -36 245 -40 25 -3
56 -8 70 -10 14 -2 50 -7 80 -10 30 -3 69 -7 85 -9 178 -24 624 -25 875 -2 48
5 150 16 180 21 14 2 45 6 70 9 25 3 55 8 66 10 12 2 38 7 58 10 20 3 52 9 72
12 20 3 45 8 55 10 11 2 28 6 40 9 11 2 28 6 37 9 9 3 28 7 42 10 14 3 42 10
63 15 20 5 37 7 37 5 0 -3 8 0 18 5 11 6 31 12 47 15 15 3 59 15 97 27 38 11
76 22 86 24 9 2 18 4 20 5 1 2 5 3 10 4 15 4 118 38 137 46 11 4 47 18 80 31
33 12 74 28 92 35 17 8 34 14 37 14 3 0 31 12 63 26 32 14 74 32 93 41 53 23
320 157 360 180 19 11 59 34 88 52 29 17 54 31 56 31 4 0 226 145 241 157 6 4
39 28 75 52 62 42 289 218 300 231 3 4 42 39 87 79 184 160 400 388 558 586
99 125 285 387 285 403 0 6 3 12 8 14 27 12 232 390 332 613 73 162 159 392
200 530 230 786 267 1547 114 2315 -53 266 -166 643 -253 845 -116 267 -193
426 -265 549 -25 43 -46 80 -46 82 0 5 -92 149 -163 254 -246 367 -618 769
-947 1025 -47 36 -96 75 -110 86 -107 86 -390 271 -554 361 -377 207 -762 359
-1156 456 -258 64 -444 94 -780 127 -102 10 -522 13 -660 4z m-4389 -5301 c3
-55 41 -276 71 -413 49 -231 111 -442 199 -680 38 -101 42 -111 68 -164 12
-24 20 -46 17 -48 -15 -15 -491 221 -631 312 -49 32 -94 63 -100 67 -5 5 -35
27 -65 50 -67 51 -184 170 -205 206 -51 93 -59 118 -59 193 -1 61 4 84 23 122
29 57 99 129 166 172 52 34 216 113 244 119 9 2 28 8 44 14 15 7 38 14 50 16
12 2 34 9 50 15 15 6 27 8 27 5 0 -4 7 -1 15 6 8 7 15 9 15 6 0 -4 8 -2 18 3
24 14 52 13 53 -1z"/>
</g>
</svg>
